<?xml version="1.0" encoding="UTF-8" standalone="no"?>
<svg
   width="1280"
   height="515"
   version="1.1"
   id="svg24"
   sodipodi:docname="website_slides_banner_escodoo.svg"
   inkscape:version="1.1.2 (0a00cf5339, 2022-02-04)"
   xmlns:inkscape="http://www.inkscape.org/namespaces/inkscape"
   xmlns:sodipodi="http://sodipodi.sourceforge.net/DTD/sodipodi-0.dtd"
   xmlns:xlink="http://www.w3.org/1999/xlink"
   xmlns="http://www.w3.org/2000/svg"
   xmlns:svg="http://www.w3.org/2000/svg">
  <sodipodi:namedview
     id="namedview26"
     pagecolor="#ffffff"
     bordercolor="#666666"
     borderopacity="1.0"
     inkscape:pageshadow="2"
     inkscape:pageopacity="0.0"
     inkscape:pagecheckerboard="0"
     showgrid="false"
     inkscape:zoom="0.52539063"
     inkscape:cx="846.98885"
     inkscape:cy="331.18216"
     inkscape:window-width="2560"
     inkscape:window-height="996"
     inkscape:window-x="0"
     inkscape:window-y="0"
     inkscape:window-maximized="1"
     inkscape:current-layer="svg24" />
  <defs
     id="defs3">
    <path
       id="a"
       d="M0 0L1280 0 1280 515 0 515z" />
    <mask
       id="b"
       fill="#fff">
      <use
         xlink:href="#a"
         id="use5" />
    </mask>
  </defs>
  <g
     id="g1466">
    <use
       fill="#845978"
       xlink:href="#a"
       id="use8"
       style="fill-rule:evenodd;fill:#7963b8;fill-opacity:1"
       x="0"
       y="0"
       width="100%"
       height="100%" />
    <path
       fill="#ffffff"
       opacity="0.101"
       d="m 2322,279.215 -1065.813,28.904 1051.136,-182.353 -19.058,-98.674 -1044.716,240.134 999.85,-391.626 -37.674,-92.918 -973.837,443.338 902.79,-579.371 -54.571,-83.707 -875.235,630.243 777.043,-752.666 -69.638,-71.116 -733.628,790.286 617.037,-888.195 -81.785,-56.003 -572.493,924.392 435.91,-999.11 -90.97,-38.489 L 1104.631,119.186 1341.95,-942.59 1245.409,-962.361 1062.81,115.465 1091.232,-978 H 992.768 L 1021.073,110.687 842.55,-963.011 745.951,-943.544 981.029,123.615 597.652,-897.716 l -90.967,38.489 434.019,994.776 -567.189,-922.204 -81.949,55.751 616.987,894.031 -736.84,-793.731 -69.625,71.12 L 875.739,189.899 6.251,-440.377 -48.584,-356.841 856.35,227.947 -121.728,-217.321 -159.406,-124.4 836.111,265.515 -203.336,23.099 -222.696,121.718 832.511,308.254 -238,279.215 V 379.78 l 1065.826,-28.904 -1051.154,182.361 19.06,98.663 1044.731,-240.128 -999.869,391.623 37.678,92.921 973.85,-443.339 -902.8,579.369 54.571,83.717 875.24,-630.245 -777.045,752.661 69.62,71.118 733.641,-790.279 -617.04,888.183 81.783,56.013 572.515,-924.422 -435.932,999.135 90.969,38.494 L 979.369,539.806 742.047,1601.588 838.586,1621.359 1021.195,543.54 992.768,1637 h 98.464 l -28.3,-1088.71 178.521,1073.719 96.596,-19.468 -235.076,-1067.156 383.375,1021.336 90.97,-38.494 -434.013,-994.759 567.182,922.184 81.96,-55.748 -616.973,-894.014 736.81,793.707 69.631,-71.118 -773.659,-749.38 869.501,630.275 54.827,-83.538 -904.961,-584.803 978.11,445.283 37.666,-92.921 -995.498,-389.923 1039.438,242.424 19.347,-98.624 L 1251.581,350.754 2322,379.78 V 279.215"
       id="path10"
       style="fill-rule:evenodd" />
    <path
       fill="#845978"
       d="M 0,516.75821 H 1280.6173 V 310 H 0 Z"
       id="path12"
       style="fill:#7963b8;fill-opacity:1;fill-rule:evenodd;stroke-width:0.880582" />
    <path
       fill="#62495b"
       d="m 946.337,261.582 c 0.847,2.898 -0.292,11.332 -2.838,16.44 -2.61,5.243 -3.973,11.4 -3.87,16.3 0.104,4.9 0.696,9.381 1.768,13.249 0.61,2.202 1.424,4.075 1.53,5.704 0.116,1.291 -0.188,2.43 -1.356,3.457 -2.603,2.295 -3.393,0.38 -6.824,0.172 -3.432,-0.206 -3.377,0.77 -5.994,2.872 -2.615,2.1 -7.481,1.773 -10.954,0.786 -1.726,-0.491 -2.233,-1.085 -2.187,-1.666 -0.052,-0.639 0.623,-1.273 1.146,-1.75 1.139,-1.047 7.964,-5.337 9.272,-6.39 1.31,-1.052 2.808,-1.722 4.869,-4.58 1.502,-2.083 1.38,-8.905 1.677,-9.706 0.296,-0.8 0.117,-25.32 0.223,-26.503 0.103,-1.182 0.032,-11.58 -0.154,-14.905 -0.187,-3.326 -1.853,-20.897 -1.838,-23.644 0.015,-2.42 -0.22,-10.46 -0.078,-12.351 0.41,-5.36 1.482,-11.253 1.951,-13.672 -4.047,-5.29 -17.535,-20.276 -17.058,-27.208 -0.057,-0.897 0.08,-1.685 0.456,-2.335 1.178,-2.043 4.149,-6.69 10.967,-14.3 1.108,-1.237 5.609,-8.446 6.549,-9.792 2.508,-3.59 4.842,-6.03 7.015,-7.427 -0.027,0.117 -0.055,0.234 -0.085,0.351 0.4,-0.253 0.795,-0.47 1.184,-0.652 0.237,-0.186 0.453,-0.34 0.638,-0.455 0.473,-0.493 1.117,-0.989 1.75,-1.443 0.481,-1.24 1.321,-2.015 2.509,-2.517 -3.11,-1.568 -6.466,-5.624 -7.866,-11.291 -0.793,-3.207 -1.213,-6.385 -1.116,-9.238 a 36.606,36.606 0 0 1 0,-1.584 c 0.05,-2.044 -0.037,2.043 0,0 0.03,-1.213 0.25,-3.094 0.303,-4.57 a 7.24,7.24 0 0 1 -0.374,-0.35 4.327,4.327 0 0 1 -1.252,-2.69 c -0.086,-1.057 0.41,-1.68 -0.018,-2.645 -0.936,-2.078 -0.973,-2.206 0.426,-4.024 3.676,-4.777 11.967,-6.44 17.705,-5.739 7.173,0.876 14.116,3.421 20.537,6.594 3.653,1.805 7.251,3.718 10.968,5.39 3.375,1.521 6.992,3.053 10.734,3.371 4.154,0.355 8.352,-0.273 12.49,0.385 1.772,0.281 4.26,0.434 5.608,1.746 0.248,0.241 2.206,3.148 1.81,3.342 0.095,-0.226 -0.966,-1.376 -1.136,-1.566 -0.788,-0.882 -1.703,-1.326 -2.893,-1.368 -2.524,-0.101 -5.084,0.242 -7.542,0.785 0.274,0.095 5.011,2 4.888,2.282 -0.025,-0.343 -4.147,-0.683 -4.444,-0.707 a 27.4,27.4 0 0 0 -7.93,0.534 c 2.858,0.064 5.61,0.666 8.367,1.327 -1.572,0.141 -3.148,0.277 -4.711,0.525 -2.476,0.384 -4.768,1.278 -7.145,2.015 1.693,0.203 3.296,-0.053 4.942,-0.39 2.869,-0.573 5.825,-0.874 8.754,-0.652 2.58,0.202 5.574,0.812 7.277,2.893 0.675,0.826 1.216,1.822 1.359,2.883 0.022,0.163 -0.131,0.914 -0.333,1.544 4.53,-0.863 9.602,-0.703 13.088,2.02 1.676,1.31 2.9,3.46 3.444,5.487 0.458,1.708 0.577,3.55 0.225,5.286 -0.36,1.774 -1.093,2.183 -0.192,3.927 1.311,2.557 3.37,4.884 5.808,6.424 1.445,0.911 3.14,1.577 4.877,1.47 0.442,-0.026 4.739,-1.7 4.322,-2.072 0.184,0.126 -2.103,2.09 -2.29,2.202 -1.71,1.025 -3.767,1.167 -5.687,0.749 -3.085,-0.667 -6.333,-2.054 -9.115,-3.504 1.537,2.123 2.864,4.395 4.24,6.623 -1.362,-1.229 -2.709,-2.476 -4.09,-3.683 -1.857,-1.615 -3.806,-3.24 -6.152,-4.093 -2.191,0.973 -4.198,2.336 -6.114,3.76 3.956,-0.25 8.58,0.182 11.377,3.33 1.338,1.483 2.231,3.402 2.041,5.427 -0.035,0.392 -1.534,4.865 -1.974,4.541 1.149,0.416 0.78,-5.87 0.497,-6.42 -1.249,-2.423 -3.903,-3.582 -6.528,-3.677 -4.764,-0.174 -9.383,1.896 -13.727,3.607 -6.39,2.517 -12.823,3.525 -18.704,1.79 2.999,6.302 5.64,12.88 11.16,17.713 8.531,7.055 19.945,9.093 30.411,10.297 13.644,1.476 26.787,2.094 37.221,10.814 7.107,5.805 18.999,8.258 28.462,7.75 -12.617,0.678 -17.857,12.01 -26.522,18.664 -8.667,6.653 -20.557,4.2 -30.995,3.437 -13.168,-1.06 -15.554,12.77 -20.491,21.434 -4.558,7.316 -14.275,11.375 -22.461,10.491 -7.107,-0.997 -15.08,-7.592 -22.722,-9.996 0.467,2.288 0.937,4.31 1.045,4.606 0.212,0.6 3.277,6.553 5.59,12.14 1.463,3.533 2.892,9.43 1.173,17.681 -1.72,8.25 -3.245,11.791 -2.26,21.321 0.641,6.24 3.83,8.669 1.184,14.64 -0.103,0.294 -0.219,0.596 -0.349,0.907 -1.936,4.633 -2.625,6.691 -4.74,6.816 -0.578,0.031 -1.172,-0.081 -1.816,-0.352 -2.175,-0.91 -3.326,-5.513 -3.108,-9.464 0.019,-1.23 0.178,-2.415 0.49,-3.412 0.688,-2.203 1.28,-3.8 1.771,-5.177 0.302,-0.93 0.556,-1.757 0.77,-2.639 0.54,-2.223 -2.647,-21.654 -3.117,-23.984 -0.05,-0.245 -0.1,-0.596 -0.154,-1.034 -0.475,-3.534 -1.13,-13.188 -2.435,-16.05 -1.452,-3.185 -2.71,-2.913 -6.159,-12.517 -0.37,-1.031 -0.726,-2.042 -1.071,-3.033 -5.187,1.108 -9.326,2.34 -12.572,3.377 -0.905,0.288 -2.457,0.932 -4.1,1.502 0.263,1.753 0.538,3.221 0.777,4.037 z m -11.709,-65.5 c 1.087,-5.093 2.296,-10.76 2.52,-12.129 0.378,-2.328 1.356,-4.99 0.86,-8.373 -0.388,-2.641 -0.758,-4.978 -1.322,-7.285 -0.747,0.847 -1.202,1.338 -1.202,1.338 0,0 -9.15,7.925 -10.484,10.847 0.444,1.05 2.883,5.021 5.29,8.849 1.714,2.697 3.396,5.3 4.338,6.753 z m 61.355,-68.14 c 0.228,0.352 0.467,0.7 0.718,1.041 3.884,5.285 10.252,2.212 15.227,0.516 1.19,-0.406 2.49,-0.765 3.843,-1.034 0.062,-0.433 0.087,-0.88 0.074,-0.937 -0.198,-0.864 -0.796,-1.621 -1.454,-2.205 -1.619,-1.431 -3.95,-1.446 -6.002,-1.208 -3.992,0.463 -7.307,2.44 -11.08,3.506 -0.437,0.124 -0.88,0.23 -1.326,0.32 z"
       id="path14"
       style="fill-rule:evenodd;fill:#62498c;fill-opacity:1" />
    <path
       fill="#62495b"
       d="m 1093.97,260.626 0.367,-0.223 0.221,0.408 c 0.275,0.51 0.574,0.931 0.84,1.303 0.216,0.303 0.42,0.59 0.583,0.883 l 0.064,0.114 c 4.362,7.816 5.312,15.846 5.339,21.21 0.039,7.821 -2.491,17.906 -4.167,24.58 l -0.242,0.962 c 0.212,1.792 0.492,4.332 0.815,8.157 0.27,3.188 0.858,5.808 1.379,8.121 1.164,5.17 2.085,9.252 -1.103,16.058 -3.496,7.467 -5.598,10.801 -8.8,10.801 v 0 c -0.797,0 -1.66,-0.2 -2.712,-0.635 -4.58,-1.881 -6.41,-13.277 -4.25,-19.88 1.368,-4.174 2.033,-6.992 2.62,-9.475 0.303,-1.28 0.59,-2.487 0.94,-3.746 0.417,-1.5 0.013,-5.424 -1.203,-11.658 -2.256,-7.179 -4.35,-18.57 -5.474,-24.693 -0.154,-0.832 -0.289,-1.57 -0.406,-2.188 -0.387,-2.067 -0.62,-4.118 -0.848,-6.1 -0.298,-2.614 -0.581,-5.083 -1.173,-7.008 l -0.327,-1.061 0.544,0.309 a 8.815,8.815 0 0 0 -0.566,-1.255 c -1.825,-3.28 -2.65,-1.935 -4.132,-7.236 -1.126,-4.03 -2.505,-7.587 -5.064,-12.134 -0.473,1.561 -1.02,3.08 -1.54,4.657 -1.003,3.032 -1.03,5.612 0.02,8.575 0.39,1.104 0.693,2.256 0.921,3.436 l 0.417,-0.178 0.096,0.547 c 0.7,3.956 0.67,8.541 -0.086,13.632 -1.32,8.76 -5.312,16.59 -9.638,24.507 -0.478,0.873 -1.003,1.739 -1.557,2.657 -2.172,3.594 -4.418,7.31 -3.705,11.336 0.252,1.42 0.697,2.841 1.172,4.348 0.744,2.373 1.515,4.829 1.452,7.264 -0.071,2.677 -2.49,5.787 -5.507,5.787 -0.307,0 -0.615,-0.032 -0.918,-0.098 a 34.52,34.52 0 0 1 -2.077,-0.564 c -1.4,-0.41 -2.846,-0.837 -4.24,-0.837 -0.855,0 -1.618,0.157 -2.331,0.483 -0.81,0.365 -1.509,1.016 -2.185,1.646 -0.21,0.2 -0.42,0.394 -0.636,0.582 -1.716,1.51 -3.194,2.332 -4.942,2.743 a 16.802,16.802 0 0 1 -3.87,0.429 c -2.328,0 -4.836,-0.409 -7.456,-1.216 -1.04,-0.323 -3.206,-0.989 -3.178,-2.633 0.018,-1.058 0.919,-1.86 1.576,-2.447 l 0.345,-0.306 c 1.544,-1.341 3.353,-2.45 5.107,-3.526 0.66,-0.407 1.35,-0.829 1.996,-1.248 2.074,-1.342 4.258,-2.833 6.874,-4.683 2.628,-1.862 4.36,-3.785 5.296,-5.883 0.38,-0.85 0.81,-1.695 1.225,-2.51 0.812,-1.6 1.654,-3.254 2.13,-4.984 1.076,-3.925 1.9,-16.317 1.908,-16.43 0.205,-5.779 0.481,-11.955 1.098,-17.95 l 0.02,-0.194 0.158,-0.115 c 0.106,-0.078 0.212,-0.156 0.32,-0.233 0.162,-1.516 0.347,-3.027 0.56,-4.53 0.592,-4.18 1.876,-8.963 -0.08,-12.97 -1.553,-3.182 -1.278,-6.316 -1.553,-9.79 -0.595,-7.467 -3.566,-14.373 -4.586,-21.76 a 134.789,134.789 0 0 1 -1.17,-22.97 c 0.096,-2.784 0.253,-5.595 0.683,-8.337 -0.568,-0.9 -1.161,-1.672 -1.78,-2.214 -2.905,-2.543 -17.648,-11.6 -20.243,-16.44 -2.6,-4.838 -0.735,-14.198 0.534,-19.22 1.237,-4.89 3.433,-4.748 3.988,-10.246 0.554,-5.498 7.1,-15.47 7.1,-15.47 0,0 3.67,-10.345 10.06,-13.431 2.578,-2.049 5.136,-2.368 7.123,-2.245 0.422,-0.104 4.63,-1.145 9.092,-2.29 l -0.047,-0.343 c -2.981,-0.45 -2.067,-1.528 -2.067,-1.528 0,0 -0.803,0.548 -1.445,0.326 -1.642,-0.568 -2.723,-1.923 -3.084,-3.084 -0.362,-1.16 -0.341,-9.855 -0.934,-11.167 -0.593,-1.311 -2.168,-3.855 -1.793,-4.93 0.378,-1.074 1.331,-2.826 1.128,-3.224 -0.203,-0.397 -1.608,-3.293 -1.04,-4.966 0.206,-0.605 0.958,-1.9 1.858,-3.332 -0.183,0.196 -0.289,0.314 -0.289,0.314 0,0 0.023,-2.072 1.68,-5.607 1.66,-3.534 5.244,-6.47 5.244,-6.47 l -0.234,3.078 c 0,0 0.56,-2.669 4.162,-3.616 3.6,-0.947 6.081,0.213 6.081,0.213 l -2.045,1.5 c 0,0 3.3,-1.604 6.868,-1.187 3.568,0.414 6.966,3.295 6.966,3.295 l -1.901,0.277 c 0,0 1.904,1.836 4.233,3.226 2.33,1.388 2.706,2.427 2.706,2.427 0,0 -1.916,0.397 -2.174,2.605 -0.26,2.207 -0.802,8.977 -1.719,11.48 -0.695,1.896 -1.884,3.735 -2.418,4.514 l 0.3,0.797 c -1.185,2.732 0.29,4.964 -0.128,7.925 a 2.378,2.378 0 0 1 -0.358,0.918 c 14.484,-2.305 31.741,-1.504 40.772,1.926 17.559,6.732 27.689,24.24 47.948,24.912 20.262,0.674 40.522,-12.793 61.456,-7.406 6.078,1.347 10.13,4.714 14.184,8.753 5.402,4.713 10.803,9.426 16.884,12.793 -12.833,4.714 -22.961,2.693 -24.99,19.527 -1.348,14.14 -2.026,27.606 -18.233,30.973 -14.183,3.367 -29.04,-4.04 -41.872,4.714 -8.104,5.386 -7.429,15.487 -12.156,22.892 -4.726,10.1 -11.48,16.833 -22.96,15.487 -12.834,-1.347 -22.96,-10.1 -35.794,-9.427 -2.62,0 -5.245,0.635 -7.866,1.903 0.945,9.11 1.565,17.69 1.13,21.006 -0.56,4.294 -0.024,6.665 0.71,8.211 z m -50.243,-80.861 c 1.092,-4.104 -0.2,-11.253 -0.843,-15.414 -0.464,-2.979 -1.828,-5.89 -3.08,-8.56 -2.677,5.731 -6.853,10.803 -5.855,14.223 1.166,3.992 5.353,5.992 8.902,11.585 0.251,-0.663 0.726,-2.018 0.726,-2.018 z"
       id="path16"
       style="fill-rule:evenodd;fill:#62498c;fill-opacity:1" />
  </g>
</svg>
